<?xml version="1.0" encoding="UTF-8"?>
<svg xmlns="http://www.w3.org/2000/svg" xmlns:xlink="http://www.w3.org/1999/xlink" width="54px" height="54px" viewBox="0 0 54 54" version="1.1">
<g id="surface1">
<path style=" stroke:none;fill-rule:nonzero;fill:rgb(14.901961%,30.19608%,89.411765%);fill-opacity:1;" d="M 53.960938 10.613281 L 49.042969 49.65625 L 26.945312 54 L 4.910156 49.664062 L 0 10.613281 Z M 53.960938 10.613281 "/>
<path style=" stroke:none;fill-rule:nonzero;fill:rgb(16.078432%,39.607844%,94.509804%);fill-opacity:1;" d="M 44.835938 47.171875 L 49.035156 13.804688 L 26.980469 13.804688 L 26.980469 50.679688 Z M 44.835938 47.171875 "/>
<path style=" stroke:none;fill-rule:nonzero;fill:rgb(92.156863%,92.156863%,92.156863%);fill-opacity:1;" d="M 11.257812 28.289062 L 11.863281 33.078125 L 26.980469 33.078125 L 26.980469 28.289062 Z M 11.257812 28.289062 "/>
<path style=" stroke:none;fill-rule:nonzero;fill:rgb(92.156863%,92.156863%,92.156863%);fill-opacity:1;" d="M 26.980469 18.59375 L 10.042969 18.59375 L 10.65625 23.382812 L 26.980469 23.382812 Z M 26.980469 18.59375 "/>
<path style=" stroke:none;fill-rule:nonzero;fill:rgb(92.156863%,92.156863%,92.156863%);fill-opacity:1;" d="M 26.980469 45.710938 L 26.980469 40.726562 L 26.949219 40.734375 L 19.425781 39.292969 L 18.945312 35.472656 L 12.164062 35.472656 L 13.113281 42.992188 L 26.949219 45.714844 Z M 26.980469 45.710938 "/>
<path style=" stroke:none;fill-rule:nonzero;fill:rgb(0%,0%,0%);fill-opacity:1;" d="M 12.699219 0 L 20.882812 0 L 20.882812 2.425781 L 16.121094 2.425781 L 16.121094 4.851562 L 20.882812 4.851562 L 20.882812 7.277344 L 12.699219 7.277344 Z M 12.699219 0 "/>
<path style=" stroke:none;fill-rule:nonzero;fill:rgb(0%,0%,0%);fill-opacity:1;" d="M 22.515625 0 L 30.699219 0 L 30.699219 2.109375 L 25.9375 2.109375 L 25.9375 2.53125 L 30.699219 2.53125 L 30.699219 7.382812 L 22.515625 7.382812 L 22.515625 5.167969 L 27.277344 5.167969 L 27.277344 4.746094 L 22.515625 4.746094 Z M 22.515625 0 "/>
<path style=" stroke:none;fill-rule:nonzero;fill:rgb(0%,0%,0%);fill-opacity:1;" d="M 32.335938 0 L 40.515625 0 L 40.515625 2.109375 L 35.757812 2.109375 L 35.757812 2.53125 L 40.515625 2.53125 L 40.515625 7.382812 L 32.335938 7.382812 L 32.335938 5.167969 L 37.097656 5.167969 L 37.097656 4.746094 L 32.335938 4.746094 Z M 32.335938 0 "/>
<path style=" stroke:none;fill-rule:nonzero;fill:rgb(100%,100%,100%);fill-opacity:1;" d="M 35.273438 33.078125 L 34.492188 39.289062 L 26.957031 40.730469 L 26.957031 45.714844 L 40.804688 42.992188 L 40.90625 42.183594 L 42.496094 29.574219 L 42.660156 28.289062 L 43.878906 18.59375 L 26.957031 18.59375 L 26.957031 23.382812 L 36.476562 23.382812 L 35.859375 28.289062 L 26.957031 28.289062 L 26.957031 33.078125 Z M 35.273438 33.078125 "/>
</g>
</svg>
